<mxfile host="Electron" modified="2024-06-07T10:01:35.274Z" agent="Mozilla/5.0 (Macintosh; Intel Mac OS X 10_15_7) AppleWebKit/537.36 (KHTML, like Gecko) draw.io/24.4.13 Chrome/124.0.6367.207 Electron/30.0.6 Safari/537.36" etag="4qbn0wqDa23LqAhQCJSQ" version="24.4.13" type="device">
  <diagram name="Page-1" id="PpQvivXtACY1P0wCpZJ5">
    <mxGraphModel dx="1227" dy="862" grid="1" gridSize="10" guides="1" tooltips="1" connect="1" arrows="1" fold="1" page="1" pageScale="1" pageWidth="3300" pageHeight="4681" math="0" shadow="0">
      <root>
        <mxCell id="0" />
        <mxCell id="1" parent="0" />
        <mxCell id="sxN0As-IXrdtP7WJsntv-8" value="" style="curved=1;endArrow=classic;html=1;rounded=0;entryX=0.5;entryY=0;entryDx=0;entryDy=0;" edge="1" parent="1" target="sxN0As-IXrdtP7WJsntv-2">
          <mxGeometry width="50" height="50" relative="1" as="geometry">
            <mxPoint x="210" y="110" as="sourcePoint" />
            <mxPoint x="260" y="60" as="targetPoint" />
            <Array as="points">
              <mxPoint x="260" y="110" />
              <mxPoint x="330" y="100" />
            </Array>
          </mxGeometry>
        </mxCell>
        <mxCell id="sxN0As-IXrdtP7WJsntv-14" value="Matériel préparatoire en ligne" style="swimlane;whiteSpace=wrap;html=1;" vertex="1" parent="1">
          <mxGeometry x="80" y="40" width="370" height="200" as="geometry" />
        </mxCell>
        <mxCell id="sxN0As-IXrdtP7WJsntv-2" value="Étudier la théorie (statistiques)" style="rounded=1;whiteSpace=wrap;html=1;fillColor=#ffe6cc;strokeColor=#d79b00;" vertex="1" parent="sxN0As-IXrdtP7WJsntv-14">
          <mxGeometry x="190" y="100" width="120" height="60" as="geometry" />
        </mxCell>
        <mxCell id="sxN0As-IXrdtP7WJsntv-1" value="Découvrir un&lt;br&gt;exemple pratique" style="rounded=1;whiteSpace=wrap;html=1;fillColor=#fff2cc;strokeColor=#d6b656;" vertex="1" parent="sxN0As-IXrdtP7WJsntv-14">
          <mxGeometry x="20" y="40" width="120" height="60" as="geometry" />
        </mxCell>
        <mxCell id="sxN0As-IXrdtP7WJsntv-16" value="" style="curved=1;endArrow=classic;html=1;rounded=0;entryX=0;entryY=0.5;entryDx=0;entryDy=0;" edge="1" parent="1" source="sxN0As-IXrdtP7WJsntv-20" target="sxN0As-IXrdtP7WJsntv-3">
          <mxGeometry width="50" height="50" relative="1" as="geometry">
            <mxPoint x="390" y="180" as="sourcePoint" />
            <mxPoint x="440" y="130" as="targetPoint" />
            <Array as="points">
              <mxPoint x="400" y="100" />
            </Array>
          </mxGeometry>
        </mxCell>
        <mxCell id="sxN0As-IXrdtP7WJsntv-17" value="" style="curved=1;endArrow=classic;html=1;rounded=0;exitX=0.45;exitY=1.033;exitDx=0;exitDy=0;exitPerimeter=0;entryX=0.5;entryY=1;entryDx=0;entryDy=0;" edge="1" parent="1" source="sxN0As-IXrdtP7WJsntv-3" target="sxN0As-IXrdtP7WJsntv-2">
          <mxGeometry width="50" height="50" relative="1" as="geometry">
            <mxPoint x="610" y="250" as="sourcePoint" />
            <mxPoint x="330" y="210" as="targetPoint" />
            <Array as="points">
              <mxPoint x="570" y="210" />
              <mxPoint x="330" y="240" />
            </Array>
          </mxGeometry>
        </mxCell>
        <mxCell id="sxN0As-IXrdtP7WJsntv-18" value="Contextualisation" style="rounded=0;whiteSpace=wrap;html=1;fillColor=#fff2cc;strokeColor=#d6b656;" vertex="1" parent="1">
          <mxGeometry x="80" y="250" width="180" height="60" as="geometry" />
        </mxCell>
        <mxCell id="sxN0As-IXrdtP7WJsntv-19" value="Séance en présentiel" style="swimlane;whiteSpace=wrap;html=1;" vertex="1" parent="1">
          <mxGeometry x="460" y="40" width="180" height="200" as="geometry" />
        </mxCell>
        <mxCell id="sxN0As-IXrdtP7WJsntv-3" value="Appliquer sur d&#39;autres données" style="rounded=1;whiteSpace=wrap;html=1;fillColor=#f8cecc;strokeColor=#b85450;" vertex="1" parent="sxN0As-IXrdtP7WJsntv-19">
          <mxGeometry x="25" y="40" width="130" height="60" as="geometry" />
        </mxCell>
        <mxCell id="sxN0As-IXrdtP7WJsntv-21" value="" style="curved=1;endArrow=classic;html=1;rounded=0;entryX=0;entryY=0.5;entryDx=0;entryDy=0;" edge="1" parent="1" target="sxN0As-IXrdtP7WJsntv-20">
          <mxGeometry width="50" height="50" relative="1" as="geometry">
            <mxPoint x="390" y="180" as="sourcePoint" />
            <mxPoint x="470" y="110" as="targetPoint" />
            <Array as="points">
              <mxPoint x="440" y="180" />
            </Array>
          </mxGeometry>
        </mxCell>
        <mxCell id="sxN0As-IXrdtP7WJsntv-20" value="Poser des&lt;br&gt;questions" style="ellipse;whiteSpace=wrap;html=1;fillColor=#f5f5f5;fontColor=#333333;strokeColor=#666666;" vertex="1" parent="1">
          <mxGeometry x="420" y="120" width="90" height="60" as="geometry" />
        </mxCell>
        <mxCell id="sxN0As-IXrdtP7WJsntv-22" value="Décontextualisation" style="rounded=0;whiteSpace=wrap;html=1;fillColor=#ffe6cc;strokeColor=#d79b00;" vertex="1" parent="1">
          <mxGeometry x="270" y="250" width="180" height="60" as="geometry" />
        </mxCell>
        <mxCell id="sxN0As-IXrdtP7WJsntv-23" value="Recontextualisation" style="rounded=0;whiteSpace=wrap;html=1;fillColor=#f8cecc;strokeColor=#b85450;" vertex="1" parent="1">
          <mxGeometry x="460" y="250" width="180" height="60" as="geometry" />
        </mxCell>
      </root>
    </mxGraphModel>
  </diagram>
</mxfile>
